<mxfile host="app.diagrams.net" modified="2024-01-09T11:49:45.171Z" agent="Mozilla/5.0 (Macintosh; Intel Mac OS X 10_15_7) AppleWebKit/537.36 (KHTML, like Gecko) Chrome/120.0.0.0 Safari/537.36 Edg/120.0.0.0" etag="9xJIZzueFO8SIDuivviA" version="22.1.17" type="github">
  <diagram name="第 1 页" id="4ijZ3mbbHrKE858DHn3w">
    <mxGraphModel dx="1050" dy="676" grid="1" gridSize="10" guides="1" tooltips="1" connect="1" arrows="1" fold="1" page="1" pageScale="1" pageWidth="827" pageHeight="1169" math="0" shadow="0">
      <root>
        <mxCell id="0" />
        <mxCell id="1" parent="0" />
        <mxCell id="h3d27p1q0C2_pxRfhvXs-17" value="" style="edgeStyle=orthogonalEdgeStyle;rounded=0;orthogonalLoop=1;jettySize=auto;html=1;dashed=1;" edge="1" parent="1" source="h3d27p1q0C2_pxRfhvXs-1" target="h3d27p1q0C2_pxRfhvXs-3">
          <mxGeometry relative="1" as="geometry" />
        </mxCell>
        <mxCell id="h3d27p1q0C2_pxRfhvXs-1" value="a" style="whiteSpace=wrap;html=1;aspect=fixed;fillColor=#ffe6cc;strokeColor=#d79b00;" vertex="1" parent="1">
          <mxGeometry x="50" y="110" width="340" height="340" as="geometry" />
        </mxCell>
        <mxCell id="h3d27p1q0C2_pxRfhvXs-2" value="Task1" style="text;strokeColor=none;align=center;fillColor=none;html=1;verticalAlign=middle;whiteSpace=wrap;rounded=0;" vertex="1" parent="1">
          <mxGeometry x="310" y="410" width="60" height="30" as="geometry" />
        </mxCell>
        <mxCell id="h3d27p1q0C2_pxRfhvXs-3" value="" style="whiteSpace=wrap;html=1;aspect=fixed;fillColor=#ffe6cc;strokeColor=#d79b00;" vertex="1" parent="1">
          <mxGeometry x="450" y="110" width="340" height="340" as="geometry" />
        </mxCell>
        <mxCell id="h3d27p1q0C2_pxRfhvXs-4" value="Task2" style="text;strokeColor=none;align=center;fillColor=none;html=1;verticalAlign=middle;whiteSpace=wrap;rounded=0;" vertex="1" parent="1">
          <mxGeometry x="720" y="405" width="60" height="30" as="geometry" />
        </mxCell>
        <mxCell id="h3d27p1q0C2_pxRfhvXs-11" value="" style="edgeStyle=orthogonalEdgeStyle;rounded=0;orthogonalLoop=1;jettySize=auto;html=1;" edge="1" parent="1" source="h3d27p1q0C2_pxRfhvXs-5" target="h3d27p1q0C2_pxRfhvXs-6">
          <mxGeometry relative="1" as="geometry" />
        </mxCell>
        <mxCell id="h3d27p1q0C2_pxRfhvXs-5" value="X1、X2、X3、X4" style="rounded=0;whiteSpace=wrap;html=1;fillColor=#dae8fc;strokeColor=#6c8ebf;" vertex="1" parent="1">
          <mxGeometry x="65" y="380" width="120" height="50" as="geometry" />
        </mxCell>
        <mxCell id="h3d27p1q0C2_pxRfhvXs-10" value="" style="edgeStyle=orthogonalEdgeStyle;rounded=0;orthogonalLoop=1;jettySize=auto;html=1;" edge="1" parent="1" source="h3d27p1q0C2_pxRfhvXs-6" target="h3d27p1q0C2_pxRfhvXs-9">
          <mxGeometry relative="1" as="geometry" />
        </mxCell>
        <mxCell id="h3d27p1q0C2_pxRfhvXs-6" value="特征提取器F" style="rounded=1;whiteSpace=wrap;html=1;fillColor=#f8cecc;strokeColor=#b85450;" vertex="1" parent="1">
          <mxGeometry x="80" y="270" width="90" height="60" as="geometry" />
        </mxCell>
        <mxCell id="h3d27p1q0C2_pxRfhvXs-13" value="" style="edgeStyle=orthogonalEdgeStyle;rounded=0;orthogonalLoop=1;jettySize=auto;html=1;" edge="1" parent="1" source="h3d27p1q0C2_pxRfhvXs-9" target="h3d27p1q0C2_pxRfhvXs-12">
          <mxGeometry relative="1" as="geometry" />
        </mxCell>
        <mxCell id="h3d27p1q0C2_pxRfhvXs-16" value="" style="edgeStyle=orthogonalEdgeStyle;rounded=0;orthogonalLoop=1;jettySize=auto;html=1;" edge="1" parent="1" source="h3d27p1q0C2_pxRfhvXs-9" target="h3d27p1q0C2_pxRfhvXs-15">
          <mxGeometry relative="1" as="geometry" />
        </mxCell>
        <mxCell id="h3d27p1q0C2_pxRfhvXs-9" value="f(C1)&lt;br&gt;f(C2)&lt;br&gt;f(C3)&lt;br&gt;f(C4)" style="rounded=0;whiteSpace=wrap;html=1;fillColor=#dae8fc;strokeColor=#6c8ebf;" vertex="1" parent="1">
          <mxGeometry x="200" y="250" width="40" height="100" as="geometry" />
        </mxCell>
        <mxCell id="h3d27p1q0C2_pxRfhvXs-24" style="edgeStyle=orthogonalEdgeStyle;rounded=0;orthogonalLoop=1;jettySize=auto;html=1;entryX=0;entryY=0.5;entryDx=0;entryDy=0;dashed=1;" edge="1" parent="1">
          <mxGeometry relative="1" as="geometry">
            <mxPoint x="310" y="155" as="sourcePoint" />
            <mxPoint x="485" y="255" as="targetPoint" />
            <Array as="points">
              <mxPoint x="420" y="155" />
              <mxPoint x="420" y="255" />
            </Array>
          </mxGeometry>
        </mxCell>
        <mxCell id="h3d27p1q0C2_pxRfhvXs-12" value="U(C1)、U(C2)、U(C3)、U(C4)" style="whiteSpace=wrap;html=1;rounded=0;fillColor=#d5e8d4;strokeColor=#82b366;" vertex="1" parent="1">
          <mxGeometry x="130" y="140" width="180" height="40" as="geometry" />
        </mxCell>
        <mxCell id="h3d27p1q0C2_pxRfhvXs-14" value="重放内存" style="text;strokeColor=none;align=center;fillColor=none;html=1;verticalAlign=middle;whiteSpace=wrap;rounded=0;" vertex="1" parent="1">
          <mxGeometry x="120" y="190" width="60" height="30" as="geometry" />
        </mxCell>
        <mxCell id="h3d27p1q0C2_pxRfhvXs-15" value="线性分类器" style="rounded=1;whiteSpace=wrap;html=1;fillColor=#e1d5e7;strokeColor=#9673a6;" vertex="1" parent="1">
          <mxGeometry x="280" y="280" width="80" height="60" as="geometry" />
        </mxCell>
        <mxCell id="h3d27p1q0C2_pxRfhvXs-20" value="" style="edgeStyle=orthogonalEdgeStyle;rounded=0;orthogonalLoop=1;jettySize=auto;html=1;" edge="1" parent="1" source="h3d27p1q0C2_pxRfhvXs-18" target="h3d27p1q0C2_pxRfhvXs-19">
          <mxGeometry relative="1" as="geometry" />
        </mxCell>
        <mxCell id="h3d27p1q0C2_pxRfhvXs-18" value="X5" style="rounded=0;whiteSpace=wrap;html=1;fillColor=#dae8fc;strokeColor=#6c8ebf;" vertex="1" parent="1">
          <mxGeometry x="470" y="380" width="120" height="55" as="geometry" />
        </mxCell>
        <mxCell id="h3d27p1q0C2_pxRfhvXs-22" value="" style="edgeStyle=orthogonalEdgeStyle;rounded=0;orthogonalLoop=1;jettySize=auto;html=1;" edge="1" parent="1" source="h3d27p1q0C2_pxRfhvXs-19" target="h3d27p1q0C2_pxRfhvXs-21">
          <mxGeometry relative="1" as="geometry" />
        </mxCell>
        <mxCell id="h3d27p1q0C2_pxRfhvXs-27" value="" style="rounded=0;orthogonalLoop=1;jettySize=auto;html=1;" edge="1" parent="1" source="h3d27p1q0C2_pxRfhvXs-19" target="h3d27p1q0C2_pxRfhvXs-26">
          <mxGeometry relative="1" as="geometry" />
        </mxCell>
        <mxCell id="h3d27p1q0C2_pxRfhvXs-19" value="特征提取器F" style="rounded=1;whiteSpace=wrap;html=1;fillColor=#f8cecc;strokeColor=#b85450;" vertex="1" parent="1">
          <mxGeometry x="485" y="298" width="90" height="60" as="geometry" />
        </mxCell>
        <mxCell id="h3d27p1q0C2_pxRfhvXs-36" value="" style="edgeStyle=orthogonalEdgeStyle;rounded=0;orthogonalLoop=1;jettySize=auto;html=1;" edge="1" parent="1" source="h3d27p1q0C2_pxRfhvXs-21" target="h3d27p1q0C2_pxRfhvXs-33">
          <mxGeometry relative="1" as="geometry" />
        </mxCell>
        <mxCell id="h3d27p1q0C2_pxRfhvXs-21" value="伪特征生成器G" style="rounded=1;whiteSpace=wrap;html=1;fillColor=#f8cecc;strokeColor=#b85450;" vertex="1" parent="1">
          <mxGeometry x="485" y="220" width="90" height="60" as="geometry" />
        </mxCell>
        <mxCell id="h3d27p1q0C2_pxRfhvXs-25" value="U(C5)" style="whiteSpace=wrap;html=1;rounded=0;fillColor=#d5e8d4;strokeColor=#82b366;" vertex="1" parent="1">
          <mxGeometry x="540" y="120" width="180" height="40" as="geometry" />
        </mxCell>
        <mxCell id="h3d27p1q0C2_pxRfhvXs-30" value="" style="edgeStyle=orthogonalEdgeStyle;rounded=0;orthogonalLoop=1;jettySize=auto;html=1;" edge="1" parent="1" source="h3d27p1q0C2_pxRfhvXs-26" target="h3d27p1q0C2_pxRfhvXs-29">
          <mxGeometry relative="1" as="geometry" />
        </mxCell>
        <mxCell id="h3d27p1q0C2_pxRfhvXs-26" value="f(C5)&lt;br&gt;" style="rounded=0;whiteSpace=wrap;html=1;fillColor=#dae8fc;strokeColor=#6c8ebf;" vertex="1" parent="1">
          <mxGeometry x="610" y="306" width="40" height="44" as="geometry" />
        </mxCell>
        <mxCell id="h3d27p1q0C2_pxRfhvXs-29" value="线性分类器" style="rounded=1;whiteSpace=wrap;html=1;fillColor=#e1d5e7;strokeColor=#9673a6;" vertex="1" parent="1">
          <mxGeometry x="700" y="292" width="80" height="60" as="geometry" />
        </mxCell>
        <mxCell id="h3d27p1q0C2_pxRfhvXs-38" style="edgeStyle=orthogonalEdgeStyle;rounded=0;orthogonalLoop=1;jettySize=auto;html=1;entryX=0;entryY=0.5;entryDx=0;entryDy=0;" edge="1" parent="1" source="h3d27p1q0C2_pxRfhvXs-33" target="h3d27p1q0C2_pxRfhvXs-29">
          <mxGeometry relative="1" as="geometry" />
        </mxCell>
        <mxCell id="h3d27p1q0C2_pxRfhvXs-44" value="" style="edgeStyle=orthogonalEdgeStyle;rounded=0;orthogonalLoop=1;jettySize=auto;html=1;" edge="1" parent="1" source="h3d27p1q0C2_pxRfhvXs-33" target="h3d27p1q0C2_pxRfhvXs-25">
          <mxGeometry relative="1" as="geometry" />
        </mxCell>
        <mxCell id="h3d27p1q0C2_pxRfhvXs-33" value="f`(C1)&lt;br&gt;f`(C2)&lt;br&gt;f`(C3)&lt;br&gt;f`(C4)" style="rounded=0;whiteSpace=wrap;html=1;fillColor=#dae8fc;strokeColor=#6c8ebf;" vertex="1" parent="1">
          <mxGeometry x="610" y="190" width="40" height="120" as="geometry" />
        </mxCell>
        <mxCell id="h3d27p1q0C2_pxRfhvXs-39" value="重放内存" style="text;strokeColor=none;align=center;fillColor=none;html=1;verticalAlign=middle;whiteSpace=wrap;rounded=0;" vertex="1" parent="1">
          <mxGeometry x="540" y="160" width="60" height="30" as="geometry" />
        </mxCell>
        <mxCell id="h3d27p1q0C2_pxRfhvXs-40" value="新特征" style="text;strokeColor=none;align=center;fillColor=none;html=1;verticalAlign=middle;whiteSpace=wrap;rounded=0;" vertex="1" parent="1">
          <mxGeometry x="200" y="370" width="60" height="30" as="geometry" />
        </mxCell>
        <mxCell id="h3d27p1q0C2_pxRfhvXs-41" value="新特征" style="text;strokeColor=none;align=center;fillColor=none;html=1;verticalAlign=middle;whiteSpace=wrap;rounded=0;" vertex="1" parent="1">
          <mxGeometry x="610" y="350" width="60" height="30" as="geometry" />
        </mxCell>
        <mxCell id="h3d27p1q0C2_pxRfhvXs-42" value="伪特征" style="text;strokeColor=none;align=center;fillColor=none;html=1;verticalAlign=middle;whiteSpace=wrap;rounded=0;" vertex="1" parent="1">
          <mxGeometry x="640" y="200" width="60" height="30" as="geometry" />
        </mxCell>
      </root>
    </mxGraphModel>
  </diagram>
</mxfile>
